# xmcd
#
# Track frame offsets:
#	150
#	15171
#	31065
#	47383
#	63823
#	81620
#	99700
#	117186
#	134223
#	148345
#	165364
#	180441
#	196159
#	211688
#	231411
#	246242
#	260111
#	276900
#	290543
#	305754
#
# Disc length: 4280 seconds
#
# Revision: 0
# Processed by: cddbd v1.5.2PL0 Copyright (c) Steve Scherf et al.
# Submitted via: audiograbber 1.83.01
#
DISCID=2410b614
DTITLE=Various Artist - Ballermann Charts - Vol. 03 - CD 2 (20 Song Version)
DYEAR=1900
DGENRE=Dance
TTITLE0=Scooter - Shake That
TTITLE1=Gentleman Dee - I was made for lovin' you
TTITLE2=3 T - Stuck on you
TTITLE3=Tommy Fischer - Ich vermisse Dich (Club Version)
TTITLE4=Partynator Peter Wackel - Nuechtern bin ich so schuechtern
TTITLE5=Andreas Martin - Alle blonden Maedchen
TTITLE6=Michael Wendler - Sie liebt den Dj (DJ Helden Mix)
TTITLE7=Thomas Anders - Tonight is the night
TTITLE8=Geier Sturzflug - Bruttosozialprodukt
TTITLE9=Belushi - Hit-Bomb
TTITLE10=Culture Beat - Can't go on like this
TTITLE11=Florida Inc. - I need you loving
TTITLE12=Swen G. - Follow me (Vai com a gente)
TTITLE13=Gigi and Molly - Solendo
TTITLE14=Almklausi - Oh wie verfuehrerisch
TTITLE15=Aleks Schmidt - Der Wedelsong
TTITLE16=De Randgruppe - Holzmichel (Die Antwort)
TTITLE17=Notis - Opa Opa
TTITLE18=Tobias Thies - Total verrueckt nach Dir
TTITLE19=Tom Jones vs. Funkstar Deluxe - She's a lady
EXTD=This has all 20 songs
EXTT0=
EXTT1=
EXTT2=
EXTT3=
EXTT4=
EXTT5=
EXTT6=
EXTT7=
EXTT8=
EXTT9=
EXTT10=
EXTT11=
EXTT12=
EXTT13=
EXTT14=
EXTT15=
EXTT16=
EXTT17=
EXTT18=
EXTT19=
PLAYORDER=
